<svg viewBox="0 0 640 400" data-background-color="#000000" preserveAspectRatio="xMidYMid meet" height="400" width="640" xmlns="http://www.w3.org/2000/svg" xmlns:xlink="http://www.w3.org/1999/xlink"><rect width="640" height="400" x="0" y="0" opacity="1" fill="#000000" data-fill-palette-color="background" id="background"/><g id="tight-bounds" transform="matrix(1,0,0,1,122.24000000000001,60)"><svg viewBox="0 0 395.52 280" height="280" width="395.52"><g><svg viewBox="0 0 395.52 280" height="280" width="395.52"><g><svg viewBox="0 0 395.52 280" height="280" width="395.52"><g><svg viewBox="0 0 395.52 280" height="280" width="395.52"><g><svg viewBox="0 0 395.52 280" height="280" width="395.52"><g transform="matrix(1,0,0,1,153.37676634605796,41.00505063388334)"><svg viewBox="0 0 88.76646730788404 197.9898987322333" height="197.9898987322333" width="88.76646730788404"><g><svg xmlns="http://www.w3.org/2000/svg" xmlns:xlink="http://www.w3.org/1999/xlink" version="1.1" x="0" y="0" viewBox="25.204833984375 7.0003662109375 29.59033203125 66" style="enable-background:new 0 0 80 80;" xml:space="preserve" height="197.9898987322333" width="88.76646730788404" class="icon-o-0" data-fill-palette-color="accent" id="o-0"><path d="M49.898 7H30.102c-2.746 0-4.897 2.837-4.897 6.459v53.083c0 3.621 2.151 6.458 4.897 6.458h19.796c2.746 0 4.897-2.837 4.897-6.458V13.458C54.795 9.837 52.644 7 49.898 7zM47.094 9.47l-2.734 7.622c-0.078 0.219-0.078 0.457 0 0.676l2.734 7.623-2.734 7.633c-0.078 0.218-0.078 0.456 0 0.675l2.734 7.622-2.734 7.632c-0.078 0.218-0.078 0.456 0 0.674l2.734 7.633-2.734 7.622c-0.078 0.219-0.078 0.457 0 0.675l1.948 5.443h-5.308v-62h5.925L47.094 9.47zM35.64 64.882l-2.735-7.622 2.735-7.633c0.078-0.218 0.078-0.456 0-0.674l-2.735-7.632 2.735-7.622c0.078-0.219 0.078-0.457 0-0.675l-2.735-7.633 2.735-7.623c0.078-0.219 0.078-0.457 0-0.676l-2.735-7.622 0.169-0.47h5.926v62h-5.309l1.949-5.443C35.718 65.339 35.718 65.101 35.64 64.882zM27.205 66.542V13.459c0-2.417 1.327-4.459 2.897-4.459h0.847l-0.047 0.132C30.823 9.35 30.823 9.589 30.901 9.808l2.735 7.622-2.735 7.623c-0.078 0.219-0.078 0.457 0 0.675l2.735 7.633-2.735 7.622c-0.078 0.219-0.078 0.457 0 0.675l2.735 7.632-2.735 7.633c-0.078 0.218-0.078 0.456 0 0.675l2.735 7.622-2.069 5.78h-1.465C28.531 71 27.205 68.958 27.205 66.542zM52.795 66.542c0 2.416-1.327 4.458-2.897 4.458H48.432l-2.068-5.78 2.734-7.622c0.078-0.219 0.078-0.457 0-0.675l-2.734-7.633 2.734-7.632c0.078-0.218 0.078-0.456 0-0.675l-2.734-7.622 2.734-7.633c0.078-0.218 0.078-0.456 0-0.675l-2.734-7.623 2.734-7.622c0.078-0.219 0.078-0.458 0-0.677l-0.047-0.131h0.847c1.57 0 2.897 2.042 2.897 4.458V66.542z" fill="#dedede" data-fill-palette-color="accent"/></svg></g></svg></g><path d="M60.863 102.282L65.06 91.147C65.823 89.123 66.771 87.381 67.903 85.92 69.029 84.456 70.311 83.321 71.75 82.513 73.182 81.704 74.756 81.249 76.474 81.15 78.197 81.053 80.027 81.369 81.963 82.099V82.099C83.892 82.826 85.472 83.795 86.703 85.006 87.927 86.214 88.813 87.596 89.361 89.152 89.902 90.705 90.113 92.404 89.993 94.246 89.879 96.091 89.44 98.025 88.677 100.049V100.049L84.48 111.184ZM67.596 92.103L65.244 98.344 83.798 105.338 86.151 99.097C86.584 97.947 86.813 96.806 86.838 95.674 86.869 94.544 86.647 93.466 86.173 92.44 85.698 91.414 84.959 90.461 83.956 89.58 82.953 88.7 81.631 87.95 79.99 87.332V87.332C78.343 86.711 76.853 86.4 75.518 86.4 74.183 86.399 72.998 86.627 71.965 87.085 70.931 87.542 70.053 88.205 69.33 89.074 68.608 89.943 68.03 90.953 67.596 92.103ZM74.168 71.176L81.428 60.407C82.434 58.914 83.501 57.685 84.629 56.72 85.758 55.755 86.913 55.076 88.094 54.681 89.271 54.292 90.462 54.184 91.667 54.356 92.866 54.524 94.044 54.999 95.203 55.78V55.78C96.796 56.854 97.873 58.158 98.433 59.695 98.989 61.236 99.054 62.949 98.627 64.832V64.832L109.007 64.648 105.678 69.585 96.442 69.75 96.081 70.285 91.745 76.718 98.019 80.947 95.096 85.283ZM83.675 61.922L79.338 68.355 89.498 75.203 93.834 68.77C94.893 67.199 95.299 65.707 95.053 64.294 94.801 62.877 93.809 61.584 92.077 60.417V60.417C90.345 59.249 88.775 58.814 87.367 59.112 85.964 59.415 84.734 60.351 83.675 61.922ZM121.474 21.672L123.118 23.827 115.379 29.73 129.042 47.643 124.884 50.814 111.221 32.901 103.482 38.804 101.839 36.649ZM150.672 7.663L147.516 28.631 150.712 35.49 145.972 37.698 142.776 30.84 124.69 19.771 129.923 17.332 142.999 25.356 143.164 25.279 145.439 10.102ZM156.234 6.044L168.894 3.148C170.649 2.746 172.268 2.579 173.751 2.646 175.234 2.714 176.541 3.007 177.673 3.527 178.799 4.048 179.742 4.783 180.503 5.732 181.263 6.674 181.799 7.827 182.111 9.188V9.188C182.539 11.061 182.433 12.75 181.792 14.254 181.144 15.759 180.02 17.053 178.421 18.136V18.136L186.123 25.097 180.318 26.425 173.464 20.231 172.836 20.375 165.273 22.105 166.96 29.482 161.863 30.648ZM169.499 5.79L161.936 7.52 164.668 19.463 172.231 17.733C174.078 17.311 175.394 16.499 176.181 15.3 176.966 14.093 177.126 12.472 176.66 10.436V10.436C176.194 8.399 175.345 7.009 174.113 6.264 172.883 5.525 171.345 5.367 169.499 5.79ZM209.861 2.71L193.096 2.865 193.172 11.156 206.33 11.035 206.355 13.735 193.197 13.857 193.278 22.692 210.043 22.538 210.068 25.238 188.074 25.441 187.842 0.203 209.836 0ZM241.361 10.587L232.042 21.559 242.663 25.064 241.706 10.701ZM238.561 6.438L246.435 9.036 248.275 36.222 243.348 34.595 243.009 28.033 229.997 23.738 225.819 28.81 220.892 27.184ZM261.807 15.198L272.003 21.333C273.856 22.448 275.399 23.694 276.632 25.071 277.869 26.443 278.755 27.908 279.29 29.469 279.828 31.023 279.991 32.654 279.78 34.361 279.564 36.074 278.923 37.817 277.857 39.589V39.589C276.794 41.356 275.556 42.736 274.143 43.728 272.734 44.715 271.215 45.337 269.586 45.596 267.961 45.848 266.252 45.749 264.462 45.299 262.667 44.854 260.844 44.074 258.99 42.959V42.959L248.795 36.824ZM270.605 23.655L264.89 20.217 254.667 37.207 260.383 40.646C261.436 41.279 262.517 41.71 263.626 41.939 264.732 42.173 265.832 42.149 266.926 41.867 268.021 41.585 269.092 41.03 270.139 40.202 271.186 39.374 272.161 38.208 273.065 36.706V36.706C273.973 35.198 274.547 33.788 274.788 32.475 275.029 31.162 275.018 29.956 274.755 28.857 274.491 27.757 273.997 26.774 273.272 25.907 272.548 25.04 271.659 24.289 270.605 23.655ZM295.699 40.034L286.426 61.708 286.675 61.971 308.828 53.91 314.16 59.545 295.828 76.892 292.233 73.093 306.9 59.216 306.651 58.952 286.036 66.543 281.825 62.094 290.543 41.93 290.294 41.666 275.627 55.544 272.033 51.745 290.366 34.398ZM321.239 70.812L299.871 84.243 297.088 79.816 318.457 66.384ZM332.626 96.769L334.657 101.588 311.397 111.387 308.737 105.073 322.429 84.633 322.288 84.298 303.347 92.279 301.317 87.46 324.576 77.66 327.236 83.974 313.544 104.415 313.685 104.749ZM90.555 173.018L94.752 184.152C95.514 186.176 95.953 188.11 96.067 189.955 96.187 191.798 95.973 193.497 95.426 195.053 94.884 196.607 94.001 197.988 92.777 199.196 91.546 200.406 89.963 201.376 88.027 202.106V202.106C86.098 202.833 84.271 203.148 82.548 203.052 80.831 202.952 79.253 202.499 77.814 201.692 76.382 200.882 75.103 199.745 73.977 198.282 72.845 196.821 71.897 195.078 71.135 193.054V193.054L66.938 181.92ZM92.215 185.108L89.863 178.867 71.309 185.861 73.661 192.102C74.095 193.252 74.676 194.261 75.405 195.127 76.127 195.996 77.005 196.66 78.039 197.117 79.073 197.574 80.257 197.803 81.592 197.802 82.927 197.801 84.414 197.492 86.055 196.873V196.873C87.702 196.253 89.027 195.502 90.03 194.621 91.033 193.741 91.772 192.787 92.247 191.761 92.721 190.735 92.943 189.658 92.912 188.528 92.881 187.398 92.649 186.258 92.215 185.108ZM100.479 197.579L107.738 208.348C108.744 209.841 109.483 211.291 109.954 212.699 110.425 214.107 110.622 215.432 110.545 216.675 110.464 217.913 110.117 219.058 109.506 220.11 108.9 221.158 108.018 222.072 106.86 222.853V222.853C105.267 223.927 103.653 224.436 102.019 224.379 100.381 224.316 98.77 223.734 97.184 222.632V222.632L93.461 232.323 90.133 227.385 93.445 218.761 93.084 218.227 88.748 211.794 82.474 216.023 79.551 211.687ZM105.491 209.863L101.154 203.43 90.995 210.279 95.332 216.712C96.391 218.282 97.621 219.219 99.024 219.521 100.432 219.819 102.002 219.384 103.734 218.217V218.217C105.466 217.049 106.458 215.757 106.71 214.339 106.956 212.926 106.55 211.434 105.491 209.863ZM140.717 239.59L139.074 241.745 131.335 235.842 117.672 253.755 113.514 250.583 127.177 232.671 119.438 226.768 121.082 224.613ZM164.075 250.067L145.989 261.136 142.793 267.995 138.053 265.786 141.249 258.927 138.093 237.959 143.326 240.398 145.592 255.571 145.756 255.648 158.842 247.628ZM163.311 249.515L175.971 252.412C177.726 252.814 179.256 253.367 180.563 254.072 181.869 254.778 182.919 255.611 183.712 256.571 184.499 257.529 185.029 258.601 185.302 259.787 185.576 260.966 185.558 262.237 185.246 263.599V263.599C184.818 265.471 183.988 266.946 182.756 268.021 181.518 269.095 179.944 269.772 178.033 270.052V270.052L181.941 279.669 176.137 278.341 172.658 269.783 172.029 269.639 164.467 267.909 162.779 275.285 157.682 274.119ZM175.367 255.054L167.804 253.324 165.071 265.267 172.634 266.997C174.48 267.42 176.019 267.262 177.249 266.523 178.48 265.778 179.329 264.388 179.795 262.351V262.351C180.261 260.315 180.101 258.694 179.316 257.487 178.53 256.288 177.213 255.477 175.367 255.054ZM210.103 257.472L193.338 257.318 193.262 265.61 206.42 265.731 206.395 268.431 193.237 268.31 193.155 277.145 209.92 277.3 209.895 280 187.902 279.797 188.134 254.559 210.128 254.762ZM233.337 251.589L232.379 265.953 243 262.448 233.681 251.476ZM228.617 249.922L236.491 247.323 254.151 268.073 249.223 269.699 245.045 264.627 232.033 268.921 231.695 275.484 226.767 277.11ZM245.448 244.105L255.644 237.97C257.497 236.855 259.321 236.075 261.115 235.63 262.906 235.18 264.615 235.084 266.245 235.342 267.87 235.595 269.388 236.214 270.797 237.201 272.209 238.193 273.449 239.576 274.515 241.348V241.348C275.578 243.115 276.218 244.855 276.433 246.568 276.645 248.275 276.483 249.908 275.948 251.469 275.41 253.024 274.522 254.486 273.286 255.858 272.053 257.235 270.509 258.481 268.656 259.596V259.596L258.46 265.731ZM257.041 240.292L251.326 243.731 261.549 260.721 267.264 257.282C268.317 256.648 269.204 255.895 269.926 255.022 270.65 254.155 271.144 253.172 271.408 252.072 271.672 250.973 271.683 249.767 271.441 248.454 271.2 247.141 270.628 245.734 269.724 244.231V244.231C268.816 242.723 267.839 241.555 266.792 240.727 265.745 239.899 264.674 239.344 263.58 239.062 262.485 238.78 261.385 238.756 260.279 238.99 259.174 239.224 258.094 239.658 257.041 240.292ZM272.651 224.649L294.804 232.711 295.053 232.447 285.78 210.773 291.112 205.138 309.445 222.485 305.851 226.283 291.185 212.405 290.936 212.669 299.653 232.833 295.443 237.283 274.828 229.692 274.579 229.955 289.245 243.833 285.651 247.631 267.318 230.284ZM294.375 198.793L315.744 212.225 312.961 216.652 291.593 203.22ZM303.385 177.403L305.415 172.584 328.675 182.383 326.014 188.697 301.823 193.177 301.682 193.511 320.624 201.492 318.594 206.31 295.334 196.511 297.995 190.197 322.186 185.717 322.327 185.383ZM61.027 143.246C61.027 137.921 65.343 133.605 70.667 133.605 75.992 133.605 80.308 137.921 80.308 143.246 80.308 148.57 75.992 152.886 70.667 152.886 65.343 152.886 61.027 148.57 61.027 143.246ZM314.934 143.246C314.934 137.921 319.25 133.605 324.575 133.605 329.899 133.605 334.215 137.921 334.215 143.246 334.215 148.57 329.899 152.886 324.575 152.886 319.25 152.886 314.934 148.57 314.934 143.246Z" fill="#89939e" data-fill-palette-color="primary"/></svg></g></svg></g></svg></g></svg></g><defs/></svg><rect width="395.52" height="280" fill="none" stroke="none" visibility="hidden"/></g></svg>