<svg viewBox="0 0 640 400" data-background-color="#672faf" preserveAspectRatio="xMidYMid meet" height="400" width="640" xmlns="http://www.w3.org/2000/svg" xmlns:xlink="http://www.w3.org/1999/xlink"><rect width="640" height="400" x="0" y="0" opacity="1" fill="#672faf" data-fill-palette-color="background" id="background"/><g id="tight-bounds" transform="matrix(1,0,0,1,122.24000000000001,76.4)"><svg viewBox="0 0 395.52 247.2" height="247.2" width="395.52"><g><svg/></g><g><svg viewBox="0 0 395.52 247.2" height="247.2" width="395.52"><g><g><path xmlns="http://www.w3.org/2000/svg" d="M212.633 233.327c-12.347 4.719-25.48 8.223-39.4 10.511-13.92 2.241-28.197 3.361-42.832 3.361-5.482 0-10.845-0.143-16.089-0.429-5.244-0.286-10.607-0.715-16.089-1.287l0.547-25.967h141.571c-8.625 5.429-17.861 10.032-27.708 13.811zM103.157 11.228c12.776-4.1 25.957-6.984 39.543-8.653 13.539-1.716 27.006-2.574 40.401-2.574 16.637 0 31.94 2.503 45.907 7.508 13.223 4.738 24.715 11.463 34.478 20.175l-160.676 0z" fill="#ffffff" fill-rule="nonzero" stroke="none" stroke-width="1" stroke-linecap="butt" stroke-linejoin="miter" stroke-miterlimit="10" stroke-dasharray="" stroke-dashoffset="0" font-family="none" font-weight="none" font-size="none" text-anchor="none" style="mix-blend-mode: normal" data-fill-palette-color="tertiary"/></g></g><g transform="matrix(1,0,0,1,0.13069677415984415,37.08)"><svg viewBox="0 0 395.2586064516803 173.04" height="173.04" width="395.2586064516803"><g><svg viewBox="0 0 780.8903857995675 341.86547782426595" height="173.04" width="395.2586064516803"><g><rect width="7.090849719438773" height="124.30347511338178" x="414.08243382052035" y="108.78100135544209" fill="#ffffff" opacity="1" stroke-width="0" stroke="transparent" fill-opacity="1" class="rect-o-0" data-fill-palette-color="primary" rx="1%" id="o-0" data-palette-color="#ffffff"/></g><g transform="matrix(1,0,0,1,0,109.09021398010223)"><svg viewBox="0 0 395.52 123.68504986406148" height="123.68504986406148" width="395.52"><g><svg viewBox="0 0 395.52 123.68504986406148" height="123.68504986406148" width="395.52"><g><svg viewBox="0 0 395.52 78.62905937291528" height="78.62905937291528" width="395.52"><g transform="matrix(1,0,0,1,0,0)"><svg width="395.52" viewBox="1.0700000524520874 -35.790000915527344 182.96998596191406 36.380001068115234" height="78.62905937291528" data-palette-color="#ffffff"><path d="M28.91-19.38L28.91-19.38Q28.91-15.97 28.03-13.22 27.15-10.47 25.57-8.34 24-6.2 21.83-4.66 19.65-3.13 17.07-2.14 14.48-1.15 11.56-0.67 8.64-0.2 5.57-0.2L5.57-0.2Q4.42-0.2 3.32-0.26 2.22-0.32 1.07-0.44L1.07-0.44 1.76-33.2Q4.44-34.06 7.29-34.41 10.13-34.77 12.94-34.77L12.94-34.77Q16.43-34.77 19.36-33.72 22.29-32.67 24.41-30.69 26.54-28.71 27.72-25.85 28.91-23 28.91-19.38ZM18.9-17.48L18.9-17.82Q18.92-19.14 18.62-20.36 18.31-21.58 17.61-22.52 16.92-23.46 15.84-24.04 14.77-24.61 13.28-24.66L13.28-24.66 12.3-9.52Q13.77-9.74 14.97-10.49 16.16-11.23 17.03-12.32 17.9-13.4 18.37-14.73 18.85-16.06 18.9-17.48L18.9-17.48ZM58.98-23.54L58.98-23.54Q58.98-21.63 58.65-20.08 58.32-18.53 57.61-17.24 56.91-15.94 55.78-14.84 54.66-13.75 53.07-12.74L53.07-12.74 58.88-2.39 47.9-0.24 44.14-10.64 41.11-10.55 40.67-0.39 30.17-0.39Q30.3-5.96 30.41-11.47 30.52-16.99 30.66-22.56L30.66-22.56Q30.71-25.37 30.76-28.13 30.81-30.88 30.95-33.69L30.95-33.69Q32.66-34.33 34.32-34.74 35.98-35.16 37.66-35.39 39.33-35.62 41.05-35.71 42.77-35.79 44.58-35.79L44.58-35.79Q47.36-35.79 49.96-35.02 52.56-34.25 54.56-32.71 56.56-31.18 57.77-28.88 58.98-26.59 58.98-23.54ZM48.04-22.75L48.04-22.75Q48.04-23.78 47.76-24.63 47.48-25.49 46.93-26.11 46.38-26.73 45.57-27.09 44.75-27.44 43.65-27.44L43.65-27.44Q43.16-27.44 42.7-27.38 42.23-27.32 41.79-27.2L41.79-27.2 41.4-18.12 41.99-18.12Q43.04-18.12 44.13-18.38 45.21-18.65 46.08-19.21 46.95-19.78 47.5-20.65 48.04-21.53 48.04-22.75ZM70.11-5.03L70.11-5.03Q70.11-3.96 69.7-3.03 69.28-2.1 68.59-1.4 67.89-0.71 66.96-0.31 66.04 0.1 64.99 0.1L64.99 0.1Q63.91 0.1 62.98-0.31 62.06-0.71 61.36-1.4 60.66-2.1 60.26-3.03 59.86-3.96 59.86-5.03L59.86-5.03Q59.86-6.08 60.26-7.03 60.66-7.98 61.36-8.68 62.06-9.38 62.98-9.79 63.91-10.21 64.99-10.21L64.99-10.21Q66.04-10.21 66.96-9.79 67.89-9.38 68.59-8.68 69.28-7.98 69.7-7.03 70.11-6.08 70.11-5.03ZM68.47-34.38L95.09-34.42 94.84-24.07 87.57-23.78 86.69-1.12 76.38-0.59 75.46-23.24 68.18-22.85 68.47-34.38ZM114.86-33.89L126.58-33.06 115.1-14.31 115.44-0.49 102.9-0.49 103.19-14.21 94.25-32.32 106.7-33.89 110.61-23.34 114.86-33.89ZM155.36-23.54L155.36-23.54Q155.36-21.63 155.03-20.08 154.7-18.53 153.99-17.24 153.28-15.94 152.16-14.84 151.04-13.75 149.45-12.74L149.45-12.74 155.26-2.39 144.27-0.24 140.51-10.64 137.49-10.55 137.05-0.39 126.55-0.39Q126.67-5.96 126.78-11.47 126.89-16.99 127.04-22.56L127.04-22.56Q127.09-25.37 127.14-28.13 127.18-30.88 127.33-33.69L127.33-33.69Q129.04-34.33 130.7-34.74 132.36-35.16 134.03-35.39 135.71-35.62 137.43-35.71 139.15-35.79 140.95-35.79L140.95-35.79Q143.74-35.79 146.34-35.02 148.94-34.25 150.94-32.71 152.94-31.18 154.15-28.88 155.36-26.59 155.36-23.54ZM144.42-22.75L144.42-22.75Q144.42-23.78 144.14-24.63 143.86-25.49 143.31-26.11 142.76-26.73 141.94-27.09 141.13-27.44 140.03-27.44L140.03-27.44Q139.54-27.44 139.07-27.38 138.61-27.32 138.17-27.2L138.17-27.2 137.78-18.12 138.37-18.12Q139.42-18.12 140.5-18.38 141.59-18.65 142.46-19.21 143.32-19.78 143.87-20.65 144.42-21.53 144.42-22.75ZM184.04-19.73L184.04-19.73Q184.04-17.6 183.75-15.48L183.75-15.48Q179.57-15.21 175.45-14.61 171.32-14.01 167.2-13.43L167.2-13.43Q167.83-11.67 169.19-10.62 170.54-9.57 172.42-9.57L172.42-9.57Q173.4-9.57 174.56-9.94 175.72-10.3 176.86-10.85 178.01-11.4 179.06-12.04 180.11-12.67 180.87-13.18L180.87-13.18 179.7-2.1Q178.74-1.37 177.63-0.85 176.52-0.34 175.33-0.02 174.13 0.29 172.91 0.44 171.69 0.59 170.52 0.59L170.52 0.59Q168.1 0.59 166.1-0.07 164.1-0.73 162.47-1.92 160.85-3.1 159.63-4.71 158.41-6.32 157.6-8.23 156.8-10.13 156.38-12.26 155.97-14.38 155.97-16.55L155.97-16.55Q155.97-18.82 156.38-21.09 156.8-23.36 157.64-25.46 158.48-27.56 159.76-29.36 161.04-31.15 162.75-32.5 164.46-33.84 166.62-34.59 168.78-35.35 171.4-35.35L171.4-35.35Q173.57-35.35 175.36-34.75 177.16-34.16 178.56-33.09 179.97-32.03 181-30.57 182.04-29.1 182.71-27.36 183.38-25.61 183.71-23.67 184.04-21.73 184.04-19.73ZM174.28-20.46L174.28-21Q174.28-21.68 174.13-22.4 173.98-23.12 173.65-23.71 173.32-24.29 172.79-24.67 172.25-25.05 171.44-25.05L171.44-25.05Q170.47-25.05 169.72-24.52 168.98-24 168.44-23.21 167.9-22.41 167.56-21.48 167.22-20.56 167.05-19.78L167.05-19.78 174.28-20.46Z" opacity="1" transform="matrix(1,0,0,1,0,0)" fill="#ffffff" class="undefined-text-0" data-fill-palette-color="primary" id="text-0"/></svg></g></svg></g><g transform="matrix(1,0,0,1,163.310208,97.19149319343563)"><svg viewBox="0 0 232.209792 26.493556670625857" height="26.493556670625857" width="232.209792"><g transform="matrix(1,0,0,1,0,0)"><svg width="232.209792" viewBox="3.0999999046325684 -37.45000076293945 437.72998046875 49.95000076293945" height="26.493556670625857" data-palette-color="#ffffff"><path d="M14.6 0L9.95 0 9.95-17 3.1-35 7.75-35 12.3-23.05 16.8-35 21.45-35 14.6-17 14.6 0ZM30.9 0L24.1 0Q22.55 0 21.5-1.07 20.45-2.15 20.45-3.65L20.45-3.65 20.45-21.35Q20.45-22.85 21.5-23.93 22.55-25 24.1-25L24.1-25 30.9-25Q32.4-25 33.45-23.93 34.5-22.85 34.5-21.35L34.5-21.35 34.5-3.65Q34.5-2.15 33.45-1.07 32.4 0 30.9 0L30.9 0ZM26.95-4.7L26.95-4.7 28-4.7Q28.75-4.7 29.3-5.23 29.85-5.75 29.85-6.5L29.85-6.5 29.85-18.5Q29.85-19.25 29.3-19.78 28.75-20.3 28-20.3L28-20.3 26.95-20.3Q26.2-20.3 25.67-19.78 25.15-19.25 25.15-18.5L25.15-18.5 25.15-6.5Q25.15-5.75 25.67-5.23 26.2-4.7 26.95-4.7ZM52.15 0L41.7 0Q40.15 0 39.09-1.05 38.05-2.1 38.05-3.65L38.05-3.65 38.05-25 42.75-25 42.75-6.5Q42.75-5.8 43.3-5.25 43.84-4.7 44.55-4.7L44.55-4.7 47.45-4.7 47.45-25 52.15-25 52.15 0ZM67.84-35L67.84-26.05 63.14-30.3 63.14-35 67.84-35ZM83.54 0L78.84 0 78.84-36.35 83.54-37.4 83.54 0ZM92.23 0L87.53 0 87.53-36.35 92.23-37.4 92.23 0ZM108.98 0L104.33 0 104.33-35 108.98-35 118.28-11.65 118.28-35 122.93-35 122.93 0 118.28 0 108.98-23.35 108.98 0ZM142.13 0L131.68 0Q130.18 0 129.1-1.07 128.03-2.15 128.03-3.65L128.03-3.65 128.03-21.4Q128.03-22.9 129.1-23.95 130.18-25 131.68-25L131.68-25 138.48-25Q140.03-25 141.08-23.95 142.13-22.9 142.13-21.4L142.13-21.4 142.13-13.8Q142.13-12.3 141.08-11.23 140.03-10.15 138.48-10.15L138.48-10.15 132.73-10.15 132.73-6.5Q132.73-5.75 133.25-5.23 133.78-4.7 134.58-4.7L134.58-4.7 141.08-4.7 142.13 0ZM132.73-18.5L132.73-14.85 135.63-14.85Q136.38-14.85 136.9-15.38 137.43-15.9 137.43-16.65L137.43-16.65 137.43-18.5Q137.43-19.25 136.9-19.78 136.38-20.3 135.63-20.3L135.63-20.3 134.58-20.3Q133.78-20.3 133.25-19.78 132.73-19.25 132.73-18.5L132.73-18.5ZM153.02 0L148.32 0 143.62-25 148.32-25 150.67-12.5 153.02-25 157.72-25 153.02 0ZM173.32 0L162.87 0Q161.37 0 160.3-1.07 159.22-2.15 159.22-3.65L159.22-3.65 159.22-21.4Q159.22-22.9 160.3-23.95 161.37-25 162.87-25L162.87-25 169.67-25Q171.22-25 172.27-23.95 173.32-22.9 173.32-21.4L173.32-21.4 173.32-13.8Q173.32-12.3 172.27-11.23 171.22-10.15 169.67-10.15L169.67-10.15 163.92-10.15 163.92-6.5Q163.92-5.75 164.45-5.23 164.97-4.7 165.77-4.7L165.77-4.7 172.27-4.7 173.32 0ZM163.92-18.5L163.92-14.85 166.82-14.85Q167.57-14.85 168.1-15.38 168.62-15.9 168.62-16.65L168.62-16.65 168.62-18.5Q168.62-19.25 168.1-19.78 167.57-20.3 166.82-20.3L166.82-20.3 165.77-20.3Q164.97-20.3 164.45-19.78 163.92-19.25 163.92-18.5L163.92-18.5ZM180.52 0L175.82 0 175.82-25 186.27-25Q187.77-25 188.84-23.93 189.92-22.85 189.92-21.35L189.92-21.35 189.92-15.9 185.22-16.95 185.22-18.45Q185.22-19.2 184.69-19.75 184.17-20.3 183.42-20.3L183.42-20.3 180.52-20.3 180.52 0ZM205.56 0L200.91 0 200.91-35 215.91-35Q217.36-35 218.41-33.95 219.46-32.9 219.46-31.4L219.46-31.4 219.46-20.65Q219.46-19.15 218.41-18.1 217.36-17.05 215.91-17.05L215.91-17.05 214.86-17.05 219.46 0 214.86 0 210.21-17.05 205.56-17.05 205.56 0ZM205.56-30.35L205.56-21.7 213.06-21.7Q213.76-21.7 214.31-22.23 214.86-22.75 214.86-23.5L214.86-23.5 214.86-28.55Q214.86-29.3 214.31-29.83 213.76-30.35 213.06-30.35L213.06-30.35 205.56-30.35ZM237.56 0L227.11 0Q225.56 0 224.51-1.05 223.46-2.1 223.46-3.65L223.46-3.65 223.46-25 228.16-25 228.16-6.5Q228.16-5.8 228.71-5.25 229.26-4.7 229.96-4.7L229.96-4.7 232.86-4.7 232.86-25 237.56-25 237.56 0ZM245.46 0L240.76 0 240.76-25 251.21-25Q252.66-25 253.76-23.95 254.86-22.9 254.86-21.4L254.86-21.4 254.86 0 250.16 0 250.16-18.5Q250.16-19.3 249.61-19.8 249.06-20.3 248.36-20.3L248.36-20.3 245.46-20.3 245.46 0ZM282.5 0L271.15 0Q269.75 0 268.7-1.05 267.65-2.1 267.65-3.65L267.65-3.65 267.65-31.35Q267.65-32.9 268.7-33.95 269.75-35 271.15-35L271.15-35 282.5-35Q284.1-35 285.13-33.95 286.15-32.9 286.15-31.35L286.15-31.35 286.15-3.65Q286.15-2.1 285.13-1.05 284.1 0 282.5 0L282.5 0ZM274-4.6L274-4.6 279.65-4.6Q280.5-4.6 281.03-5.15 281.55-5.7 281.55-6.5L281.55-6.5 281.55-28.5Q281.55-29.35 281.03-29.88 280.5-30.4 279.65-30.4L279.65-30.4 274-30.4Q273.3-30.4 272.78-29.88 272.25-29.35 272.25-28.5L272.25-28.5 272.25-6.5Q272.25-5.7 272.78-5.15 273.3-4.6 274-4.6ZM305.35 0L294.9 0Q293.35 0 292.3-1.05 291.25-2.1 291.25-3.65L291.25-3.65 291.25-25 295.95-25 295.95-6.5Q295.95-5.8 296.5-5.25 297.05-4.7 297.75-4.7L297.75-4.7 300.65-4.7 300.65-25 305.35-25 305.35 0ZM313.55 0L308.85 0 308.85-36.4 313.55-37.45 313.55-25 319.5-25 318.4-20.3 313.55-20.3 313.55 0ZM344.94 0L333.59 0Q332.19 0 331.14-1.05 330.09-2.1 330.09-3.65L330.09-3.65 330.09-31.35Q330.09-32.9 331.14-33.95 332.19-35 333.59-35L333.59-35 344.94-35Q346.54-35 347.57-33.95 348.59-32.9 348.59-31.35L348.59-31.35 348.59-3.65Q348.59-2.1 347.57-1.05 346.54 0 344.94 0L344.94 0ZM336.44-4.6L336.44-4.6 342.09-4.6Q342.94-4.6 343.47-5.15 343.99-5.7 343.99-6.5L343.99-6.5 343.99-28.5Q343.99-29.35 343.47-29.88 342.94-30.4 342.09-30.4L342.09-30.4 336.44-30.4Q335.74-30.4 335.22-29.88 334.69-29.35 334.69-28.5L334.69-28.5 334.69-6.5Q334.69-5.7 335.22-5.15 335.74-4.6 336.44-4.6ZM358.34 0L353.69 0 353.69-33.8Q353.69-35.3 354.74-36.35 355.79-37.4 357.24-37.4L357.24-37.4 364.09-37.4Q365.59-37.4 366.64-36.35 367.69-35.3 367.69-33.8L367.69-33.8 367.69-28.4 363.04-29.4 363.04-30.95Q363.04-31.65 362.51-32.18 361.99-32.7 361.24-32.7L361.24-32.7 360.14-32.7Q359.39-32.7 358.87-32.18 358.34-31.65 358.34-30.95L358.34-30.95 358.34-24.95 364.24-24.95 363.19-20.25 358.34-20.25 358.34 0ZM386.69 0L382.04 0 382.04-30.35 375.08-30.35 375.08-35 393.63-35 393.63-30.35 386.69-30.35 386.69 0ZM403.03 12.5L396.18 12.5Q394.63 12.5 393.58 11.45 392.53 10.4 392.53 8.85L392.53 8.85 392.53 3.4 397.23 4.5 397.23 6Q397.23 6.7 397.78 7.25 398.33 7.8 399.03 7.8L399.03 7.8 400.13 7.8Q400.83 7.8 401.38 7.25 401.93 6.7 401.93 6L401.93 6 401.93 0 396.18 0Q394.63 0 393.58-1.05 392.53-2.1 392.53-3.65L392.53-3.65 392.53-25 397.23-25 397.23-6.5Q397.23-5.8 397.78-5.25 398.33-4.7 399.03-4.7L399.03-4.7 401.93-4.7 401.93-25 406.63-25 406.63 8.85Q406.63 10.4 405.58 11.45 404.53 12.5 403.03 12.5L403.03 12.5ZM415.33 0L410.63 0 410.63-25 421.08-25Q422.58-25 423.66-23.93 424.73-22.85 424.73-21.35L424.73-21.35 424.73-15.9 420.03-16.95 420.03-18.45Q420.03-19.2 419.51-19.75 418.98-20.3 418.23-20.3L418.23-20.3 415.33-20.3 415.33 0ZM440.83 0L430.38 0Q428.88 0 427.8-1.07 426.73-2.15 426.73-3.65L426.73-3.65 426.73-21.4Q426.73-22.9 427.8-23.95 428.88-25 430.38-25L430.38-25 437.18-25Q438.73-25 439.78-23.95 440.83-22.9 440.83-21.4L440.83-21.4 440.83-13.8Q440.83-12.3 439.78-11.23 438.73-10.15 437.18-10.15L437.18-10.15 431.43-10.15 431.43-6.5Q431.43-5.75 431.95-5.23 432.48-4.7 433.28-4.7L433.28-4.7 439.78-4.7 440.83 0ZM431.43-18.5L431.43-14.85 434.33-14.85Q435.08-14.85 435.6-15.38 436.13-15.9 436.13-16.65L436.13-16.65 436.13-18.5Q436.13-19.25 435.6-19.78 435.08-20.3 434.33-20.3L434.33-20.3 433.28-20.3Q432.48-20.3 431.95-19.78 431.43-19.25 431.43-18.5L431.43-18.5Z" opacity="1" transform="matrix(1,0,0,1,0,0)" fill="#ffffff" class="undefined-text-1" data-fill-palette-color="secondary" id="text-1"/></svg></g></svg></g></svg></g></svg></g><g transform="matrix(1,0,0,1,439.7357173604795,0)"><svg viewBox="0 0 341.1546684390881 341.86547782426595" height="341.86547782426595" width="341.1546684390881"><g><svg xmlns="http://www.w3.org/2000/svg" xmlns:xlink="http://www.w3.org/1999/xlink" version="1.1" x="0" y="0" viewBox="1 1 48 48.10000991821289" enable-background="new 0 0 50 50" xml:space="preserve" height="341.86547782426595" width="341.1546684390881" class="icon-icon-0" data-fill-palette-color="accent" id="icon-0"><g fill="#ffffff" data-fill-palette-color="accent"><path d="M12.7 18.1c0.5-0.3 1.1-0.4 1.7-0.4 0.4 0 0.8 0.1 1.1 0.2 0 0 0.1 0 0.1 0 0.1 0 0.2 0.1 0.3 0.1 1.4-1.8 3.2-3.2 5.4-3.9 0-0.1 0-0.2 0-0.3v-0.1c0-1 0.4-1.9 1.1-2.6C18.2 11.9 14.7 14.5 12.7 18.1zM28.6 36.1L28.6 36.1c-0.1-0.2-0.2-0.2-0.2-0.3-1.1 0.3-2.2 0.5-3.4 0.5-1.2 0-2.3-0.2-3.4-0.5 0 0.1-0.1 0.1-0.1 0.2l-0.1 0.1c-0.6 0.8-1.5 1.4-2.5 1.5 1.8 0.9 3.9 1.4 6.1 1.4 2.2 0 4.3-0.5 6.1-1.4C30.1 37.5 29.2 37 28.6 36.1zM35.2 34.6c2.4-2.5 3.9-5.9 3.9-9.7 0-0.6 0-1.2-0.1-1.8l0 0c-0.4 0.9-1.2 1.5-2.1 1.8L36.6 25c-0.1 0-0.2 0-0.2 0.1 0 2.4-0.8 4.6-2.1 6.4 0 0.1 0.1 0.1 0.2 0.2l0 0 0 0C35.2 32.6 35.4 33.6 35.2 34.6 35.2 34.6 35.2 34.6 35.2 34.6zM34.5 17.9c0.4-0.1 0.8-0.2 1.2-0.2 0.6 0 1.2 0.1 1.7 0.4-2-3.6-5.5-6.2-9.7-7 0.7 0.7 1.1 1.6 1.1 2.6v0.1c0 0.1 0 0.2 0 0.3 2.2 0.7 4 2.1 5.4 3.9C34.2 18 34.3 18 34.5 17.9L34.5 17.9zM13.6 25.1c-0.1 0-0.1-0.1-0.2-0.1l0.1-0.8L13.3 25c-1-0.3-1.8-1-2.2-1.9l0 0c-0.1 0.6-0.1 1.2-0.1 1.8 0 3.7 1.5 7.2 3.9 9.7 0 0 0-0.1 0-0.1-0.2-1 0.1-1.9 0.7-2.7l0 0 0 0c0-0.1 0.1-0.1 0.1-0.2C14.4 29.7 13.6 27.5 13.6 25.1z" fill="#ffffff" data-fill-palette-color="accent"/><path d="M38.4 20.5c-0.5-1.5-2.1-2.4-3.6-1.9 0 0 0 0-0.1 0-3.4 1.2-6.9-1.3-6.8-4.9v-0.1c0-1.6-1.3-2.9-2.9-2.9-1.6 0-2.9 1.3-2.9 2.9v0.1c0.1 3.6-3.4 6.1-6.8 4.9 0 0-0.1 0-0.1 0-1.5-0.5-3.1 0.3-3.6 1.9-0.5 1.5 0.3 3.1 1.9 3.6 0 0 0.1 0 0.1 0 3.4 1 4.7 5.1 2.5 8 0 0 0 0.1-0.1 0.1-0.9 1.3-0.7 3.1 0.6 4 1.3 0.9 3.1 0.7 4-0.6 0 0 0-0.1 0.1-0.1 2-2.9 6.3-2.9 8.3 0 0 0 0.1 0.1 0.1 0.1 0.9 1.3 2.7 1.6 4 0.6 1.3-0.9 1.6-2.7 0.6-4 0 0 0 0-0.1-0.1-2.1-2.8-0.9-6.9 2.5-8 0.1 0 0.1 0 0.1 0C38.1 23.7 38.9 22.1 38.4 20.5zM25 30.1c-2.8 0-5.1-2.3-5.1-5.1 0-2.8 2.3-5.1 5.1-5.1 2.8 0 5.1 2.3 5.1 5.1C30.1 27.8 27.8 30.1 25 30.1z" fill="#ffffff" data-fill-palette-color="accent"/><circle cx="25" cy="25" r="1.2" fill="#ffffff" data-fill-palette-color="accent"/><circle cx="25" cy="21.8" r="0.8" fill="#ffffff" data-fill-palette-color="accent"/><circle cx="26.9" cy="27.6" r="0.8" fill="#ffffff" data-fill-palette-color="accent"/><circle cx="21.9" cy="24" r="0.8" fill="#ffffff" data-fill-palette-color="accent"/><circle cx="28.1" cy="24" r="0.8" fill="#ffffff" data-fill-palette-color="accent"/><circle cx="23.1" cy="27.6" r="0.8" fill="#ffffff" data-fill-palette-color="accent"/><path d="M49 25.6v-1.2l-0.4-0.1c0-0.2 0-0.4 0-0.6l0.4-0.2-0.1-1.2-0.4-0.1c0-0.2 0-0.4-0.1-0.6l0.3-0.2-0.2-1.2-0.4-0.1c0-0.2-0.1-0.4-0.1-0.6l0.3-0.2L48 18.2l-0.4 0c-0.1-0.2-0.1-0.4-0.2-0.6l0.3-0.2-0.4-1.1-0.4 0c-0.1-0.2-0.1-0.4-0.2-0.6l0.3-0.3-0.5-1.1-0.4 0c-0.1-0.2-0.2-0.4-0.3-0.5l0.3-0.3-0.6-1.1-0.4 0.1c-0.1-0.2-0.2-0.3-0.3-0.5l0.2-0.3-0.7-1-0.4 0.1c-0.1-0.2-0.2-0.3-0.4-0.5l0.2-0.3L43 9.1l-0.4 0.1c-0.1-0.1-0.3-0.3-0.4-0.4l0.2-0.4-0.9-0.9-0.4 0.2c-0.1-0.1-0.3-0.3-0.4-0.4L40.9 7 40 6.2l-0.3 0.2c-0.2-0.1-0.3-0.3-0.5-0.4l0.1-0.4-1-0.7L38 5.2c-0.2-0.1-0.3-0.2-0.5-0.3l0.1-0.4-1.1-0.6-0.3 0.3C36 4.1 35.8 4 35.6 3.9l0-0.4L34.6 3l-0.3 0.3C34.1 3.2 34 3.1 33.8 3l0-0.4-1.1-0.4-0.2 0.3c-0.2-0.1-0.4-0.1-0.6-0.2l0-0.4-1.2-0.3L30.4 2c-0.2 0-0.4-0.1-0.6-0.1l-0.1-0.4-1.2-0.2-0.2 0.3c-0.2 0-0.4-0.1-0.6-0.1l-0.1-0.4L26.5 1l-0.2 0.4c-0.2 0-0.4 0-0.6 0L25.6 1h-1.2l-0.1 0.4c-0.2 0-0.4 0-0.6 0L23.5 1l-1.2 0.1-0.1 0.4c-0.2 0-0.4 0-0.6 0.1l-0.2-0.3-1.2 0.2-0.1 0.4c-0.2 0-0.4 0.1-0.6 0.1l-0.2-0.3L18.2 2l0 0.4c-0.2 0.1-0.4 0.1-0.6 0.2l-0.2-0.3-1.1 0.4 0 0.4c-0.2 0.1-0.4 0.1-0.6 0.2L15.4 3l-1.1 0.5 0 0.4C14.2 4 14 4.1 13.8 4.2l-0.3-0.3-1.1 0.6 0.1 0.4C12.4 5 12.2 5.1 12 5.2L11.7 5l-1 0.7 0.1 0.4c-0.2 0.1-0.3 0.2-0.5 0.4L10 6.2 9.1 7l0.1 0.4C9.1 7.5 9 7.6 8.8 7.8L8.5 7.6 7.6 8.5l0.2 0.4C7.6 9 7.5 9.1 7.4 9.3L7 9.1 6.2 10l0.2 0.3c-0.1 0.2-0.3 0.3-0.4 0.5l-0.4-0.1-0.7 1L5.2 12c-0.1 0.2-0.2 0.3-0.3 0.5l-0.4-0.1-0.6 1.1 0.3 0.3C4.1 14 4 14.2 3.9 14.4l-0.4 0L3 15.4l0.3 0.3C3.2 15.9 3.1 16 3 16.2l-0.4 0-0.4 1.1 0.3 0.2c-0.1 0.2-0.1 0.4-0.2 0.6l-0.4 0-0.3 1.2L2 19.6c0 0.2-0.1 0.4-0.1 0.6l-0.4 0.1-0.2 1.2 0.3 0.2c0 0.2-0.1 0.4-0.1 0.6l-0.4 0.1L1 23.5l0.4 0.2c0 0.2 0 0.4 0 0.6L1 24.4v1.2l0.4 0.1c0 0.2 0 0.4 0 0.6L1 26.5l0.1 1.2 0.4 0.1c0 0.2 0 0.4 0.1 0.6l-0.3 0.2 0.2 1.2 0.4 0.1c0 0.2 0.1 0.4 0.1 0.6l-0.3 0.2L2 31.8l0.4 0c0.1 0.2 0.1 0.4 0.2 0.6l-0.3 0.2 0.4 1.1 0.4 0c0.1 0.2 0.1 0.4 0.2 0.6L3 34.6l0.5 1.1 0.4 0C4 35.8 4.1 36 4.2 36.2l-0.3 0.3 0.6 1.1 0.4-0.1C5 37.6 5.1 37.8 5.2 38L5 38.3l0.7 1 0.4-0.1c0.1 0.2 0.2 0.3 0.4 0.5L6.2 40 7 40.9l0.4-0.1c0.1 0.1 0.3 0.3 0.4 0.4l-0.2 0.4 0.9 0.9 0.4-0.2c0.1 0.1 0.3 0.3 0.4 0.4L9.1 43l0.9 0.8 0.3-0.2c0.2 0.1 0.3 0.3 0.5 0.4l-0.1 0.4 1 0.7 0.3-0.2c0.2 0.1 0.3 0.2 0.5 0.3l-0.1 0.4 1.1 0.6 0.3-0.3c0.2 0.1 0.4 0.2 0.5 0.3l0 0.4 1.1 0.5 0.3-0.3c0.2 0.1 0.4 0.2 0.6 0.2l0 0.4 1.1 0.4 0.2-0.3c0.2 0.1 0.4 0.1 0.6 0.2l0 0.4 1.2 0.3 0.2-0.3c0.2 0 0.4 0.1 0.6 0.1l0.1 0.4 1.2 0.2 0.2-0.3c0.2 0 0.4 0.1 0.6 0.1l0.1 0.4 1.2 0.1 0.2-0.4c0.2 0 0.4 0 0.6 0l0.1 0.4h1.2l0.1-0.4c0.2 0 0.4 0 0.6 0l0.2 0.4 1.2-0.1 0.1-0.4c0.2 0 0.4 0 0.6-0.1l0.2 0.3 1.2-0.2 0.1-0.4c0.2 0 0.4-0.1 0.6-0.1l0.2 0.3 1.2-0.3 0-0.4c0.2-0.1 0.4-0.1 0.6-0.2l0.2 0.3 1.1-0.4 0-0.4c0.2-0.1 0.4-0.1 0.6-0.2l0.3 0.3 1.1-0.5 0-0.4c0.2-0.1 0.4-0.2 0.5-0.3l0.3 0.3 1.1-0.6-0.1-0.4c0.2-0.1 0.3-0.2 0.5-0.3l0.3 0.2 1-0.7-0.1-0.4c0.2-0.1 0.3-0.2 0.5-0.4l0.3 0.2 0.9-0.8-0.1-0.4c0.1-0.1 0.3-0.3 0.4-0.4l0.4 0.2 0.9-0.9-0.2-0.4c0.1-0.1 0.3-0.3 0.4-0.4l0.4 0.1 0.8-0.9-0.2-0.3c0.1-0.2 0.3-0.3 0.4-0.5l0.4 0.1 0.7-1L44.8 38c0.1-0.2 0.2-0.3 0.3-0.5l0.4 0.1 0.6-1.1-0.3-0.3c0.1-0.2 0.2-0.4 0.3-0.5l0.4 0 0.5-1.1-0.3-0.3c0.1-0.2 0.2-0.4 0.2-0.6l0.4 0 0.4-1.1-0.3-0.2c0.1-0.2 0.1-0.4 0.2-0.6l0.4 0 0.3-1.2L48 30.4c0-0.2 0.1-0.4 0.1-0.6l0.4-0.1 0.2-1.2-0.3-0.2c0-0.2 0.1-0.4 0.1-0.6l0.4-0.1 0.1-1.2-0.4-0.2c0-0.2 0-0.4 0-0.6L49 25.6zM41.2 25c0 8.9-7.2 16.2-16.2 16.2-8.9 0-16.2-7.2-16.2-16.2 0-8.9 7.2-16.2 16.2-16.2C33.9 8.8 41.2 16.1 41.2 25z" fill="#ffffff" data-fill-palette-color="accent"/></g></svg></g></svg></g></svg></g></svg></g></svg></g><defs/></svg><rect width="395.52" height="247.2" fill="none" stroke="none" visibility="hidden"/></g></svg>